<?xml version="1.0" standalone="no"?>
<!DOCTYPE svg PUBLIC "-//W3C//DTD SVG 20010904//EN"
 "http://www.w3.org/TR/2001/REC-SVG-20010904/DTD/svg10.dtd">
<svg version="1.0" xmlns="http://www.w3.org/2000/svg"
 width="2221.000000pt" height="2221.000000pt" viewBox="0 0 2221.000000 2221.000000"
 preserveAspectRatio="xMidYMid meet">
<metadata>
Created by potrace 1.14, written by Peter Selinger 2001-2017
</metadata>
<g transform="translate(0.000000,2221.000000) scale(0.100000,-0.100000)"
fill="#000000" stroke="none">
<path d="M16246 20334 c-75 -124 -137 -230 -139 -237 -1 -6 -32 -60 -69 -119
-38 -59 -68 -109 -68 -112 0 -2 23 -9 50 -16 28 -7 50 -15 50 -18 0 -3 -12
-25 -26 -49 -14 -25 -24 -46 -22 -47 1 -1 32 -10 68 -20 101 -27 209 -84 266
-142 51 -49 52 -52 44 -93 -4 -23 -9 -44 -12 -46 -13 -14 -128 -26 -238 -26
-156 -1 -264 20 -400 75 -11 4 -330 -514 -1320 -2150 -863 -1426 -1312 -2160
-1327 -2167 -16 -7 -31 -35 -54 -96 -76 -209 -109 -409 -109 -658 0 -245 34
-443 114 -668 l36 -100 0 -286 c0 -308 -11 -557 -36 -789 -14 -133 -49 -370
-56 -375 -3 -2 -1133 -352 -1170 -362 -17 -5 -18 79 -18 1665 l0 1670 -32 6
c-130 23 -788 87 -1138 110 -504 35 -711 41 -1385 41 -812 0 -1258 -19 -1955
-86 -313 -30 -974 -110 -1017 -124 -8 -3 -8 -16 3 -51 54 -180 29 -391 -67
-561 -30 -52 -30 -52 -157 -101 -344 -135 -611 -161 -870 -86 -213 62 -399
202 -521 392 -18 28 -34 52 -35 52 -1 0 -115 -38 -254 -84 -152 -51 -252 -80
-252 -73 -1 39 -16 37 -221 -28 -889 -278 -1716 -655 -2329 -1060 -664 -438
-1114 -906 -1365 -1420 -115 -235 -180 -448 -204 -677 -8 -65 -11 -833 -11
-2336 l0 -2239 25 -23 25 -23 0 -369 0 -368 44 -54 c89 -109 150 -248 185
-421 18 -89 18 -91 -2 -130 -11 -22 -39 -68 -63 -103 -24 -35 -44 -66 -44 -70
0 -14 95 87 151 161 134 177 209 407 209 642 0 290 -105 544 -315 761 l-85 88
1 2050 c1 1250 5 2018 10 1967 54 -508 356 -1044 844 -1494 452 -417 1027
-778 1760 -1107 l160 -72 125 16 c70 9 199 16 292 16 l166 0 12 -72 c7 -40 17
-102 24 -137 l11 -64 115 -39 115 -39 85 26 86 26 94 -45 c85 -41 91 -46 60
-46 -54 0 -117 -20 -99 -31 9 -4 119 -38 245 -74 2073 -596 4620 -795 7054
-549 2276 229 4279 845 5563 1710 98 67 166 106 163 96 -40 -131 -57 -353 -37
-492 39 -266 164 -507 358 -691 99 -95 177 -148 307 -210 175 -83 401 -129
569 -114 l79 7 -6 -338 c-3 -187 -9 -699 -12 -1138 l-6 -799 -34 -89 c-368
-966 -1334 -1755 -2840 -2321 -177 -66 -554 -194 -672 -228 -40 -11 -43 -15
-38 -38 3 -14 13 -70 23 -123 10 -64 21 -98 29 -98 25 0 512 163 724 242 653
244 1238 546 1690 873 274 198 614 514 790 735 189 238 382 573 473 820 l35
95 6 1030 c4 567 9 1095 12 1175 l5 146 -113 43 c-417 162 -680 411 -759 720
-10 41 -19 91 -19 112 0 21 -12 78 -26 126 -49 164 -34 325 46 483 93 185 321
387 596 527 l101 52 17 143 c9 79 20 160 23 181 l6 38 73 -7 74 -7 1 539 c1
297 4 579 8 628 l6 89 1645 779 c904 429 1646 780 1647 782 4 3 74 896 114
1446 17 239 35 444 39 455 5 11 11 85 15 165 3 80 10 208 15 285 5 77 12 201
15 275 l5 135 -50 34 c-73 49 -179 165 -208 229 -30 67 -40 178 -23 249 29
113 111 235 241 355 44 41 80 82 80 91 0 10 8 17 19 17 24 0 23 -8 56 525 36
583 63 1107 71 1375 4 149 11 238 18 242 6 4 8 9 5 12 -36 37 -683 369 -974
501 -1125 509 -2402 923 -3765 1219 -380 83 -1022 206 -1074 206 -7 0 -75
-102 -150 -226z m5110 -1670 c86 -53 122 -79 113 -84 -8 -5 -117 -47 -244 -95
-126 -48 -621 -237 -1100 -420 -478 -183 -1547 -591 -2375 -907 -828 -316
-1759 -672 -2070 -791 -311 -119 -754 -288 -984 -376 -231 -89 -421 -159 -423
-158 -2 2 200 88 449 192 249 103 671 279 938 390 432 180 2058 859 4375 1825
435 181 880 368 990 414 110 47 201 85 202 86 1 0 59 -34 129 -76z m671 -421
c-3 -164 -15 -458 -27 -653 -26 -453 -69 -1103 -73 -1107 -2 -1 -43 -14 -91
-28 -105 -30 -142 -49 -221 -108 -110 -82 -199 -218 -230 -349 -19 -81 -19
-215 0 -295 49 -208 214 -386 417 -452 l38 -13 -6 -86 c-34 -497 -176 -2288
-182 -2294 -4 -4 -756 -360 -1672 -792 l-1665 -785 -13 100 c-43 347 -207 712
-471 1054 -94 121 -259 299 -382 410 l-110 100 33 25 c195 148 344 331 443
543 88 190 126 357 126 562 0 189 -23 292 -97 436 -80 156 -210 270 -371 326
-71 25 -91 27 -213 27 -117 -1 -147 -4 -224 -28 -113 -34 -248 -104 -347 -178
-83 -63 -245 -227 -269 -274 -8 -16 -30 -51 -49 -79 -52 -78 -126 -231 -159
-332 -49 -146 -66 -250 -65 -408 1 -155 25 -276 78 -388 15 -32 25 -60 23 -63
-6 -5 -3142 -962 -3145 -959 -2 1 8 46 22 101 65 260 94 573 102 1074 l5 385
-45 135 c-141 416 -140 857 3 1253 28 76 33 84 69 99 45 20 1962 748 1968 748
2 0 2 -4 -2 -9 -3 -6 0 -30 6 -55 22 -89 289 -385 415 -461 130 -78 315 -109
520 -85 394 44 666 380 579 714 -33 125 -131 264 -244 347 l-34 25 174 67 c96
38 723 279 1394 536 l1220 468 13 -61 c55 -255 171 -465 354 -641 185 -179
406 -287 706 -345 l96 -19 73 30 c110 46 267 155 359 250 187 193 271 391 281
664 8 214 -34 435 -130 677 l-35 87 117 46 c302 117 927 354 935 355 5 0 7
-124 3 -297z m-10289 -5700 l-3 -807 -1335 -407 c-734 -224 -1336 -406 -1338
-404 -1 1 599 911 1335 2021 l1338 2019 3 -808 c1 -444 1 -1170 0 -1614z
m-7608 -920 c133 -212 248 -484 285 -673 15 -82 20 -276 6 -298 -12 -19 -239
-35 -426 -29 -411 12 -734 115 -927 295 -348 326 57 725 804 791 51 5 116 9
145 10 l52 1 61 -97z m260 70 c109 -15 320 -66 349 -83 12 -8 6 -9 -24 -5 -22
3 -47 7 -55 10 -8 2 -31 6 -50 9 -68 10 -276 47 -346 62 -39 8 -91 17 -115 20
-24 3 -46 8 -49 11 -8 8 175 -7 290 -24z m8905 -592 c44 -9 43 -10 -55 -16
-19 -1 -64 -5 -100 -9 -36 -4 -87 -9 -115 -11 -27 -2 -77 -6 -110 -10 -33 -3
-80 -8 -105 -10 -25 -2 -98 -9 -163 -15 -66 -6 -121 -10 -123 -7 -5 5 170 42
271 57 169 26 426 36 500 21z m-715 -187 c374 -341 599 -690 654 -1016 l7 -36
-130 -51 c-196 -77 -441 -141 -666 -173 -136 -19 -469 -16 -585 5 -117 22
-257 68 -330 110 -73 41 -166 135 -192 194 -32 72 -36 175 -9 260 69 230 371
497 749 664 104 46 357 138 382 138 9 1 63 -42 120 -95z m5730 -501 l0 -498
-158 -1 c-99 -1 -182 -6 -224 -16 -38 -8 -68 -13 -68 -12 0 2 25 37 55 79 122
170 243 402 305 583 34 102 80 291 80 335 0 15 2 27 5 27 3 0 5 -224 5 -497z
m-910 69 c38 -39 46 -96 25 -195 -19 -92 -71 -245 -119 -349 l-33 -75 -149
-108 c-751 -544 -1622 -1021 -2509 -1375 -1981 -790 -4270 -1095 -6655 -885
-581 51 -1275 153 -1780 261 -221 47 -413 94 -423 103 -4 4 79 -3 185 -15
2680 -310 4975 -259 6847 151 1312 288 2435 760 3246 1364 397 296 736 635
927 926 55 85 67 96 134 135 166 95 253 113 304 62z"/>
<path d="M20015 15759 c-82 -16 -216 -69 -270 -104 -142 -95 -283 -322 -346
-561 -29 -111 -37 -304 -15 -407 43 -212 164 -373 325 -438 78 -31 226 -38
307 -14 334 95 593 488 594 898 0 139 -21 241 -72 347 -70 146 -191 245 -335
275 -75 16 -127 17 -188 4z"/>
<path d="M16160 7146 c-36 -8 -92 -22 -125 -31 -63 -18 -256 -94 -265 -104 -3
-3 -44 -26 -92 -51 -278 -142 -526 -392 -658 -663 -79 -163 -101 -248 -107
-414 -6 -164 10 -247 74 -375 35 -70 63 -108 122 -167 92 -93 119 -114 196
-153 138 -70 272 -99 465 -99 637 0 1278 483 1422 1071 16 62 21 118 22 210 0
151 -15 216 -81 350 -39 79 -61 109 -132 180 -103 102 -168 139 -366 206 -136
46 -144 47 -275 50 -86 2 -159 -2 -200 -10z"/>
<path d="M7249 5499 c-168 -24 -325 -80 -517 -183 -501 -267 -808 -717 -790
-1155 8 -183 67 -329 186 -461 109 -121 227 -191 402 -238 84 -22 115 -25 265
-26 139 0 189 4 272 22 403 87 773 339 992 677 266 407 250 856 -38 1128 -90
85 -172 130 -334 183 -192 62 -292 75 -438 53z"/>
<path d="M62 5169 l-62 -58 0 -134 c0 -158 8 -186 104 -382 241 -488 704 -969
1326 -1378 1279 -839 3198 -1356 5630 -1517 168 -11 395 -25 505 -31 292 -16
1997 -24 2340 -10 796 32 1589 104 2360 215 273 39 290 42 287 61 -2 11 -5 24
-5 29 -2 8 112 32 421 91 30 6 32 8 32 48 0 109 54 366 105 502 174 463 498
638 942 509 123 -35 280 -103 402 -174 57 -33 106 -58 109 -55 2 2 -10 40 -27
83 -66 162 -212 350 -360 463 -92 69 -267 154 -386 186 -90 24 -117 27 -275
27 -158 0 -185 -3 -273 -27 -183 -49 -348 -141 -484 -270 -178 -170 -299 -399
-333 -636 -18 -123 -8 -312 24 -440 15 -57 25 -106 22 -108 -7 -7 -249 -42
-569 -83 -691 -87 -1376 -143 -2087 -170 -335 -13 -1515 -13 -1890 0 -1513 52
-2760 210 -3885 491 -208 52 -294 76 -580 160 -295 87 -310 91 -315 98 -3 4
-48 22 -100 40 -563 196 -1129 474 -1574 772 -629 420 -1093 928 -1288 1409
-40 99 -43 112 -48 227 l-5 121 -63 -59z"/>
</g>
</svg>
