<?xml version="1.0" encoding="UTF-8"?>
<!DOCTYPE svg PUBLIC "-//W3C//DTD SVG 1.1//EN" "http://www.w3.org/Graphics/SVG/1.1/DTD/svg11.dtd">
<!-- Creator: CorelDRAW 2019 (64-Bit) -->
<?xml-stylesheet href="cross-svg.css" type="text/css"?>
<svg xmlns="http://www.w3.org/2000/svg" xml:space="preserve" width="297mm" height="210mm" version="1.1" style="shape-rendering:geometricPrecision; text-rendering:geometricPrecision; image-rendering:optimizeQuality; fill-rule:evenodd; clip-rule:evenodd"
viewBox="0 0 297000 210000"
 xmlns:xlink="http://www.w3.org/1999/xlink">
 <g id="Слой_x0020_1">
  <metadata id="CorelCorpID_0Corel-Layer"/>
  <path class="fil0 str0" d="M90580.6 207449.7l22882.9 -22883c-58.3,-670 -88.9,-1349.4 -88.9,-2036.6 0,-11407.5 8220.2,-20655.1 18360.1,-20655.1 1353.3,0 2671.8,166.3 3941.7,478.9l20714.3 -20714.4 65810.1 65810.2 28993.2 -28993.3c-1031.5,-2276 -1609.4,-4825.1 -1609.4,-7516.6 0,-3210.9 822.8,-6218.6 2256.7,-8802.4l-19543.7 -19543.7c-1753,884.7 -3711.6,1380.3 -5779.2,1380.3 -7478.3,0 -13540.5,-6473.2 -13540.5,-14458.5 0,-1871.7 333.1,-3660.3 939.4,-5302.1l-20050.3 -20050.2 23171.7 -23171.7c-550.4,-1858.5 -847.4,-3828.1 -847.4,-5867.9 0,-11280.7 9042.1,-20425.5 20196.1,-20425.5 2097.1,0 4119.6,323.6 6021.2,923.6l17268.7 -17268.8 -32277.3 -32277.3c-1716.7,3582.7 -5319.4,6050 -9486.7,6050 -1985,0 -3841.8,-560.1 -5427.9,-1533.7l-32033.6 32033.7c1465.5,2289.9 2320,5037.4 2320,7992.5 0,7988.2 -6238.8,14463.9 -13934.7,14463.9 -3033.1,0 -5839.4,-1006.5 -8127.2,-2714.4l-4319.2 4319.2 -65810.3 -65810.3 -13715.1 13715.2c1866.5,1748.3 3002.8,4061.8 3002.8,6599.4 0,5450.2 -5240.4,9868.5 -11704.5,9868.5 -2296.3,0 -4437.6,-558 -6245.1,-1521.3l-8814.5 8814.6 22892.6 22892.6c1445.1,-2135.3 4077,-3563.7 7084.5,-3563.7 4562.9,0 8262,3288 8262,7344 0,2980.7 -1998,5546.9 -4868.4,6697.7l21269.6 21269.7c1251.3,-498.2 2607.7,-771.8 4025.2,-771.8 6274,0 11360.2,5342.9 11360.2,11934 0,6590.9 -5086.2,11933.9 -11360.2,11933.9 -1413.2,0 -2765.9,-272.1 -4014,-767.3l-54651.4 54651.3 37476.5 37476.4zm129053.4 -30657.6c3422.3,0 6196.5,2979.8 6196.5,6655.5 0,3675.8 -2774.2,6655.5 -6196.5,6655.5 -3422.4,0 -6196.6,-2979.7 -6196.6,-6655.5 0,-3675.7 2774.2,-6655.5 6196.6,-6655.5zm-140913.6 -13540.4c5196.8,0 9409.5,4418.3 9409.5,9868.5 0,5450.1 -4212.7,9868.4 -9409.5,9868.4 -5196.7,0 -9409.3,-4418.3 -9409.3,-9868.4 0,-5450.2 4212.6,-9868.5 9409.3,-9868.5zm48711.7 -112455.1c1933.1,0 3500.2,1541.3 3500.2,3442.5 0,1901.2 -1567.1,3442.4 -3500.2,3442.4 -1933,0 -3500,-1541.2 -3500,-3442.4 0,-1901.2 1567,-3442.5 3500,-3442.5zm104594.3 -21572.8c-3168.8,0 -5737.6,2466.1 -5737.6,5508 0,3042 2568.8,5507.9 5737.6,5507.9 3168.7,0 5737.4,-2465.9 5737.4,-5507.9 0,-3041.9 -2568.7,-5508 -5737.4,-5508zm-53703.2 67473.1c4182.6,0 7573.5,3493.4 7573.5,7803 0,4309.4 -3390.9,7802.9 -7573.5,7802.9 -4182.7,0 -7573.4,-3493.5 -7573.4,-7802.9 0,-4309.6 3390.7,-7803 7573.4,-7803zm-43146.1 -19278.3c1901.2,0 3442.5,1438.7 3442.5,3213.1 0,1774.5 -1541.3,3213 -3442.5,3213 -1901.2,0 -3442.4,-1438.5 -3442.4,-3213 0,-1774.4 1541.2,-3213.1 3442.4,-3213.1zm-10098 59670.4c1901.2,0 3442.5,1541.2 3442.5,3442.4 0,1901.2 -1541.3,3442.5 -3442.5,3442.5 -1901.2,0 -3442.5,-1541.3 -3442.5,-3442.5 0,-1901.2 1541.3,-3442.4 3442.5,-3442.4z"/>
 </g>
</svg>
