<svg aria-hidden="true" style="position:absolute;width:0;height:0;overflow:hidden" xmlns="http://www.w3.org/2000/svg"><defs>
<symbol id="icon-menu1" viewBox="0 0 24 24"><path d="M19 18c.55 0 1 .45 1 1s-.45 1-1 1H5c-.55 0-1-.45-1-1s.45-1 1-1h14zm0-2H5c-1.654 0-3 1.346-3 3s1.346 3 3 3h14c1.654 0 3-1.346 3-3s-1.346-3-3-3zM19 11c.55 0 1 .45 1 1s-.45 1-1 1H5c-.55 0-1-.45-1-1s.45-1 1-1h14zm0-2H5c-1.654 0-3 1.346-3 3s1.346 3 3 3h14c1.654 0 3-1.346 3-3s-1.346-3-3-3zM19 4c.55 0 1 .45 1 1s-.45 1-1 1H5c-.55 0-1-.45-1-1s.45-1 1-1h14zm0-2H5C3.346 2 2 3.346 2 5s1.346 3 3 3h14c1.654 0 3-1.346 3-3s-1.346-3-3-3z"/></symbol><symbol id="icon-menu2" viewBox="0 0 24 24"><path d="M3 13h18a1 1 0 0 0 0-2H3a1 1 0 0 0 0 2zm0-6h18a1 1 0 0 0 0-2H3a1 1 0 0 0 0 2zm0 12h18a1 1 0 0 0 0-2H3a1 1 0 0 0 0 2z"/></symbol><symbol id="icon-cross" viewBox="0 0 32 32"><path d="M16 0C7.163 0 0 7.163 0 16s7.163 16 16 16 16-7.163 16-16S24.837 0 16 0zm0 29C8.82 29 3 23.18 3 16S8.82 3 16 3s13 5.82 13 13-5.82 13-13 13z"/><path d="m21 8-5 5-5-5-3 3 5 5-5 5 3 3 5-5 5 5 3-3-5-5 5-5z"/></symbol></defs></svg>