<svg aria-hidden="true" style="position:absolute;width:0;height:0;overflow:hidden" xmlns="http://www.w3.org/2000/svg"><defs>
<!-- <symbol id="icon-cross-ch" viewBox="0 -6 45 45">
<path d="M13.803 31.611l3.487-3.487c-0.009-0.102-0.014-0.206-0.014-0.31 0-1.738 1.253-3.147 2.798-3.147 0.206 0 0.407 0.025 0.601 0.073l3.156-3.156 10.028 10.028 4.418-4.418c-0.157-0.347-0.245-0.735-0.245-1.145 0-0.489 0.125-0.948 0.344-1.341l-2.978-2.978c-0.267 0.135-0.566 0.21-0.881 0.21-1.14 0-2.063-0.986-2.063-2.203 0-0.285 0.051-0.558 0.143-0.808l-3.055-3.055 3.531-3.531c-0.084-0.283-0.129-0.583-0.129-0.894 0-1.719 1.378-3.112 3.078-3.112 0.32 0 0.628 0.049 0.918 0.141l2.631-2.631-4.918-4.918c-0.262 0.546-0.811 0.922-1.446 0.922-0.302 0-0.585-0.085-0.827-0.234l-4.881 4.881c0.223 0.349 0.354 0.768 0.354 1.218 0 1.217-0.951 2.204-2.123 2.204-0.462 0-0.89-0.153-1.238-0.414l-0.658 0.658-10.028-10.028-2.090 2.090c0.284 0.266 0.458 0.619 0.458 1.006 0 0.83-0.799 1.504-1.784 1.504-0.35 0-0.676-0.085-0.952-0.232l-1.343 1.343 3.488 3.488c0.22-0.325 0.621-0.543 1.080-0.543 0.695 0 1.259 0.501 1.259 1.119 0 0.454-0.304 0.845-0.742 1.021l3.241 3.241c0.191-0.076 0.397-0.118 0.613-0.118 0.956 0 1.731 0.814 1.731 1.819s-0.775 1.818-1.731 1.818c-0.215 0-0.421-0.041-0.612-0.117l-8.328 8.328 5.711 5.711zM33.468 26.94c0.522 0 0.944 0.454 0.944 1.014s-0.423 1.014-0.944 1.014c-0.522 0-0.944-0.454-0.944-1.014s0.423-1.014 0.944-1.014zM11.995 24.876c0.792 0 1.434 0.673 1.434 1.504s-0.642 1.504-1.434 1.504c-0.792 0-1.434-0.673-1.434-1.504s0.642-1.504 1.434-1.504zM19.418 7.74c0.295 0 0.533 0.235 0.533 0.525s-0.239 0.525-0.533 0.525c-0.295 0-0.533-0.235-0.533-0.525s0.239-0.525 0.533-0.525zM35.356 4.453c-0.483 0-0.874 0.376-0.874 0.839s0.391 0.839 0.874 0.839c0.483 0 0.874-0.376 0.874-0.839s-0.391-0.839-0.874-0.839zM27.173 14.735c0.637 0 1.154 0.532 1.154 1.189s-0.517 1.189-1.154 1.189c-0.637 0-1.154-0.532-1.154-1.189s0.517-1.189 1.154-1.189zM20.598 11.797c0.29 0 0.525 0.219 0.525 0.49s-0.235 0.49-0.525 0.49c-0.29 0-0.525-0.219-0.525-0.49s0.235-0.49 0.525-0.49zM19.060 20.89c0.29 0 0.525 0.235 0.525 0.525s-0.235 0.525-0.525 0.525c-0.29 0-0.525-0.235-0.525-0.525s0.235-0.525 0.525-0.525z"></path>
</symbol> -->
<symbol id="icon-cross-ch" viewBox="0 0 32 32">
<path d="M5.772 32.025l3.545-3.545c-0.009-0.104-0.014-0.209-0.014-0.316 0-1.767 1.273-3.2 2.844-3.2 0.21 0 0.414 0.026 0.611 0.074l2.619-2.619c-0.021-0.079-0.032-0.162-0.032-0.248 0-0.532 0.431-0.963 0.963-0.963s0.963 0.431 0.963 0.963c0 0.266-0.108 0.507-0.282 0.681l9.172 9.172 4.491-4.491c-0.16-0.353-0.249-0.747-0.249-1.164 0-0.497 0.127-0.963 0.35-1.364l-3.027-3.027c-0.272 0.137-0.575 0.214-0.895 0.214-1.158 0-2.098-1.003-2.098-2.24 0-0.29 0.052-0.567 0.146-0.821l-3.106-3.106 3.59-3.59c-0.085-0.288-0.131-0.593-0.131-0.909 0-1.748 1.401-3.164 3.129-3.164 0.325 0 0.638 0.050 0.933 0.143l2.675-2.675-5-5c-0.266 0.555-0.824 0.937-1.47 0.937-0.308 0-0.595-0.087-0.841-0.238l-4.962 4.962c0.086 0.134 0.158 0.278 0.215 0.43 0.203 0.365 0.319 0.786 0.319 1.234 0 1.405-1.139 2.543-2.543 2.543-0.614 0-1.178-0.218-1.617-0.58l-0.1 0.1-10.195-10.195-2.125 2.125c0.289 0.271 0.465 0.629 0.465 1.022 0 0.844-0.812 1.529-1.813 1.529-0.356 0-0.687-0.086-0.967-0.236l-1.365 1.365 3.546 3.546c0.224-0.331 0.632-0.552 1.097-0.552 0.707 0 1.28 0.509 1.28 1.138 0 0.462-0.31 0.859-0.754 1.038l3.295 3.295c0.194-0.077 0.404-0.12 0.624-0.12 0.972 0 1.76 0.828 1.76 1.849s-0.788 1.849-1.76 1.849c-0.219 0-0.428-0.042-0.622-0.119l-8.466 8.466 5.805 5.805zM25.763 27.275c0.53 0 0.96 0.462 0.96 1.031s-0.43 1.031-0.96 1.031c-0.53 0-0.96-0.462-0.96-1.031s0.43-1.031 0.96-1.031zM3.934 25.178c0.805 0 1.458 0.684 1.458 1.529s-0.653 1.529-1.458 1.529c-0.805 0-1.458-0.684-1.458-1.529s0.653-1.529 1.458-1.529zM11.48 7.758c0.299 0 0.542 0.239 0.542 0.533s-0.243 0.533-0.542 0.533c-0.299 0-0.542-0.239-0.542-0.533s0.243-0.533 0.542-0.533zM27.683 4.416c-0.491 0-0.889 0.382-0.889 0.853s0.398 0.853 0.889 0.853 0.889-0.382 0.889-0.853c0-0.471-0.398-0.853-0.889-0.853zM19.364 14.868c0.648 0 1.173 0.541 1.173 1.209s-0.525 1.209-1.173 1.209-1.173-0.541-1.173-1.209c0-0.668 0.525-1.209 1.173-1.209zM12.68 11.882c0.294 0 0.533 0.223 0.533 0.498s-0.239 0.498-0.533 0.498c-0.294 0-0.533-0.223-0.533-0.498s0.239-0.498 0.533-0.498zM11.116 21.125c0.294 0 0.533 0.239 0.533 0.533s-0.239 0.533-0.533 0.533c-0.295 0-0.533-0.239-0.533-0.533s0.239-0.533 0.533-0.533z"></path>
</symbol>
<symbol id="icon-logo-main" viewBox="0 0 100 32">
<path d="M0.051 6.549v6.549h2.209v-4.952l0.247-0.401c0.185-0.313 0.252-0.385 0.293-0.329 0.031 0.041 0.735 1.335 1.567 2.876l1.515 2.799 1.3 0.005c0.709 0 1.294-0.010 1.294-0.026 0-0.021-4.232-7.253-4.392-7.504-0.067-0.103 0.026-0.252 1.248-2.029 0.729-1.058 1.572-2.286 1.875-2.733l0.555-0.806h-2.496l-2.979 4.541-0.015-2.27-0.010-2.27h-2.209v6.549z"></path>
<path d="M61.077 0.134c-1.274 0.339-2.008 1.505-1.813 2.861 0.087 0.591 0.298 1.002 0.75 1.448 0.39 0.385 0.765 0.601 1.217 0.699 0.395 0.087 1.14 0.036 1.495-0.103 0.637-0.247 1.238-0.848 1.484-1.484 0.159-0.411 0.195-1.279 0.072-1.741-0.226-0.832-0.981-1.52-1.865-1.705-0.37-0.077-1.007-0.067-1.341 0.026z"></path>
<path d="M22.852 3.75c-0.036 0.113-0.077 0.205-0.092 0.205-0.021 0-0.252-0.057-0.524-0.123-1.346-0.344-2.563-0.293-3.298 0.144-0.298 0.169-0.668 0.586-0.822 0.919-0.257 0.555-0.267 0.657-0.267 3.323 0 2.45 0 2.496 0.118 2.902 0.313 1.073 0.899 1.674 1.89 1.926 0.329 0.087 0.565 0.103 1.377 0.103 0.981 0 2.769-0.072 3.226-0.134l0.241-0.031 0.021-4.397c0.010-2.424 0.026-4.448 0.041-4.5 0.021-0.087-0.077-0.123-0.853-0.318-0.478-0.123-0.899-0.226-0.935-0.226s-0.092 0.092-0.123 0.205zM21.66 5.578c0.216 0.041 0.514 0.123 0.668 0.18l0.272 0.103v2.748c0 2.568-0.005 2.748-0.087 2.784-0.051 0.015-0.473 0.036-0.94 0.036-0.786 0-0.863-0.010-1.094-0.118-0.313-0.159-0.478-0.431-0.55-0.909-0.067-0.473-0.067-3.888 0.005-4.181 0.149-0.652 0.699-0.858 1.726-0.642z"></path>
<path d="M46.562 3.601c-1.027 0.19-1.777 0.729-2.188 1.561-0.375 0.765-0.38 0.817-0.38 3.185 0 2.044 0.005 2.116 0.118 2.517 0.329 1.13 1.104 1.957 2.116 2.255 0.76 0.226 1.885 0.205 2.614-0.041 0.909-0.308 1.551-1.038 1.865-2.111 0.113-0.401 0.118-0.467 0.118-2.568s-0.005-2.168-0.118-2.568c-0.175-0.596-0.395-0.976-0.812-1.397-0.421-0.426-0.894-0.688-1.484-0.812-0.401-0.082-1.438-0.092-1.849-0.021zM47.908 5.676c0.344 0.103 0.647 0.426 0.76 0.812 0.072 0.241 0.082 0.555 0.067 2.049l-0.015 1.762-0.154 0.308c-0.2 0.401-0.473 0.58-0.955 0.621-0.678 0.067-1.217-0.231-1.443-0.791-0.113-0.288-0.118-0.334-0.118-2.039 0-1.716 0-1.752 0.118-2.008 0.159-0.349 0.401-0.575 0.74-0.693 0.334-0.113 0.657-0.123 1.002-0.021z"></path>
<path d="M53.933 3.575c-0.098 0.010-0.493 0.046-0.873 0.077s-0.734 0.067-0.781 0.077c-0.087 0.026-0.092 0.293-0.092 4.7 0 2.568 0.015 4.669 0.041 4.669 0.021 0 0.524 0.036 1.115 0.077 3.031 0.211 3.744 0.159 4.571-0.339 0.94-0.56 1.454-1.551 1.402-2.691-0.041-0.848-0.38-1.603-0.914-2.024l-0.241-0.19 0.205-0.231c0.113-0.123 0.288-0.401 0.39-0.611 0.185-0.38 0.185-0.39 0.185-1.053 0-0.657-0.005-0.678-0.175-1.027-0.308-0.622-0.842-1.043-1.674-1.315-0.334-0.108-0.462-0.118-1.669-0.128-0.719-0.005-1.392 0-1.49 0.010zM56.295 5.465c0.401 0.211 0.616 0.508 0.616 0.853 0 0.426-0.236 0.745-0.719 0.971-0.257 0.118-0.354 0.134-1.115 0.149l-0.837 0.021v-2.060l0.221-0.021c0.118-0.010 0.539-0.021 0.935-0.015 0.591 0.005 0.75 0.026 0.899 0.103zM56.455 9.328c0.37 0.108 0.601 0.293 0.724 0.575 0.154 0.339 0.092 0.642-0.169 0.894-0.349 0.334-0.961 0.442-2.116 0.375l-0.652-0.036v-1.89h0.966c0.734 0 1.032 0.021 1.248 0.082z"></path>
<path d="M71.869 3.647c-1.192 0.313-2.013 1.192-2.306 2.466-0.134 0.57-0.134 4.207 0 4.777 0.293 1.289 1.166 2.065 2.635 2.342 0.627 0.113 1.88 0.077 2.666-0.077 0.313-0.067 0.58-0.134 0.601-0.149 0.021-0.021-0.046-0.406-0.149-0.863l-0.185-0.827-0.313 0.072c-0.467 0.108-1.649 0.144-1.988 0.067-0.606-0.139-1.038-0.498-1.212-0.996-0.082-0.231-0.092-0.467-0.092-2.085 0-1.613 0.010-1.854 0.092-2.085 0.103-0.298 0.406-0.622 0.745-0.786 0.478-0.241 1.341-0.226 2.096 0.041 0.252 0.087 0.478 0.17 0.503 0.175 0.046 0.010 0.519-1.546 0.478-1.587-0.072-0.072-1.207-0.437-1.577-0.503-0.591-0.113-1.515-0.103-1.993 0.021z"></path>
<path d="M12.353 3.647c-1.464 0.231-2.378 1.104-2.671 2.548-0.072 0.36-0.077 1.007-0.067 5.465l0.015 5.054 0.873 0.19c0.478 0.108 0.935 0.205 1.012 0.221l0.144 0.026v-2.075c0-1.145 0.010-2.080 0.021-2.080s0.144 0.056 0.293 0.128c0.848 0.385 2.116 0.37 2.974-0.036 0.462-0.221 0.904-0.673 1.145-1.171 0.344-0.719 0.36-0.827 0.38-3.056 0.026-2.147 0-2.537-0.216-3.169-0.339-1.007-1.084-1.7-2.106-1.967-0.375-0.103-1.377-0.139-1.798-0.077zM13.694 5.825c0.318 0.149 0.565 0.431 0.663 0.77 0.113 0.38 0.113 3.75-0.005 4.135-0.169 0.575-0.616 0.863-1.269 0.812-0.524-0.041-0.878-0.169-1.161-0.426l-0.236-0.216v-4.248l0.144-0.288c0.144-0.298 0.401-0.524 0.683-0.611 0.082-0.021 0.324-0.046 0.534-0.046 0.303-0.005 0.442 0.021 0.647 0.118z"></path>
<path d="M31.902 3.673c-0.483 0.108-0.868 0.313-1.187 0.637-0.313 0.313-0.493 0.642-0.565 1.043-0.031 0.149-0.051 1.484-0.051 3.051v2.794h-0.308c-0.442 0-0.848-0.164-1.14-0.462-0.349-0.365-0.365-0.462-0.339-2.568 0.021-1.5 0.036-1.813 0.113-2.044 0.118-0.375 0.431-0.683 0.817-0.812l0.293-0.098-0.519-0.734c-0.288-0.406-0.555-0.75-0.596-0.765s-0.252 0.062-0.467 0.164c-0.837 0.416-1.397 1.187-1.613 2.224-0.092 0.457-0.098 0.657-0.082 2.45 0.021 1.844 0.031 1.972 0.139 2.337 0.277 0.925 0.796 1.572 1.551 1.947 0.483 0.236 0.909 0.339 1.654 0.39l0.498 0.036v5.316l-0.293-0.072c-0.467-0.118-1.639-0.103-2.132 0.026-1.258 0.339-1.972 1.104-2.291 2.45-0.077 0.324-0.087 0.894-0.087 5.445v5.080l0.873 0.19c0.483 0.108 0.95 0.205 1.043 0.226l0.164 0.031v-4.16l0.272 0.118c0.411 0.185 0.955 0.288 1.484 0.288 1.567-0.005 2.517-0.709 2.928-2.183l0.118-0.411-0.010-6.169-0.010-6.174 0.575-0.036c0.796-0.046 1.228-0.144 1.71-0.385 0.765-0.375 1.274-1.058 1.526-2.044 0.108-0.421 0.113-0.55 0.113-2.347l-0.005-1.9-0.139-0.462c-0.205-0.652-0.452-1.063-0.904-1.515-0.426-0.426-0.894-0.704-1.418-0.842-0.447-0.123-1.31-0.149-1.716-0.057zM33.31 5.337c0.257 0.118 0.401 0.272 0.534 0.57 0.19 0.426 0.216 0.817 0.2 2.62-0.015 1.649-0.021 1.731-0.128 1.926-0.267 0.493-0.632 0.704-1.289 0.735l-0.478 0.021 0.015-2.763c0.015-2.62 0.021-2.779 0.113-2.912 0.2-0.298 0.637-0.38 1.032-0.195zM29.273 20.571c0.329 0.113 0.555 0.318 0.709 0.632l0.144 0.293 0.015 1.865c0.010 1.577 0.005 1.911-0.067 2.147-0.098 0.329-0.334 0.616-0.616 0.745-0.591 0.272-1.818-0.067-2.024-0.555-0.046-0.113-0.056-0.688-0.046-2.229l0.015-2.075 0.144-0.262c0.247-0.442 0.591-0.627 1.171-0.632 0.19-0.005 0.437 0.031 0.555 0.072z"></path>
<path d="M87.859 3.647c-1.341 0.216-2.25 1.002-2.625 2.286-0.113 0.396-0.118 0.96-0.134 12.754l-0.015 9.204h2.080v-3.673l0.252-0.216 0.247-0.216 0.688 0.96c1.556 2.178 1.916 2.589 2.537 2.887 0.38 0.19 0.729 0.257 1.315 0.257h0.457v-1.834l-0.247-0.036c-0.324-0.041-0.647-0.252-0.976-0.627-0.354-0.406-2.224-3.061-2.209-3.138 0.010-0.031 0.719-0.827 1.582-1.767s1.608-1.767 1.659-1.829l0.092-0.118h-1.274l-1.274 0.005-1.413 1.526-1.413 1.52-0.015-4.279c-0.005-2.358-0.005-4.294 0.005-4.304s0.144 0.041 0.298 0.108c0.606 0.283 1.49 0.36 2.245 0.205 1.079-0.221 1.782-0.894 2.121-2.024 0.113-0.365 0.118-0.488 0.139-2.455 0.010-1.3-0.005-2.198-0.036-2.419-0.221-1.418-1.027-2.373-2.291-2.702-0.375-0.103-1.377-0.139-1.798-0.077zM89.194 5.825c0.144 0.062 0.334 0.2 0.421 0.303 0.308 0.354 0.329 0.524 0.313 2.666-0.015 1.849-0.021 1.921-0.128 2.121-0.298 0.56-0.801 0.745-1.567 0.586-0.478-0.103-0.847-0.334-0.996-0.621-0.113-0.216-0.103-3.919 0.010-4.299 0.098-0.339 0.411-0.688 0.704-0.796 0.349-0.123 0.94-0.103 1.243 0.041z"></path>
<path d="M37.198 4.71l0.015 0.966 0.889 0.015 0.883 0.010v2.712c0 2.984 0.005 3.020 0.324 3.626 0.247 0.473 0.668 0.858 1.233 1.13 0.442 0.211 1.264 0.519 1.289 0.483 0.19-0.247 0.847-1.397 0.817-1.423-0.021-0.021-0.262-0.128-0.529-0.241-0.596-0.241-0.858-0.483-0.991-0.889-0.077-0.247-0.087-0.55-0.087-2.835v-2.563h1.849v-1.952h-5.701l0.010 0.96z"></path>
<path d="M76.79 8.424v4.674h2.080l1.361-2.712 1.361-2.707 0.015 2.707 0.010 2.712h2.106v-9.348h-2.111l-1.371 2.758-1.371 2.763-0.015-2.763-0.010-2.758h-2.055v4.674z"></path>
<path d="M93.432 8.424v4.674h2.080l1.371-2.738 1.371-2.733v2.733l0.005 2.738h2.106v-9.348h-1.063l-1.068 0.005-2.722 5.465-0.015-2.738-0.010-2.733h-2.055v4.674z"></path>
<path d="M60.713 9.579v3.518h2.055v-7.037h-2.055v3.518z"></path>
<path d="M5.65 21.342v6.549h2.055v-3.4c0-1.87 0.010-3.385 0.021-3.375 0.015 0.015 0.467 1.433 1.007 3.154 0.539 1.726 1.017 3.241 1.058 3.375l0.082 0.247h1.561l1.073-3.39 1.079-3.385 0.015 3.385 0.010 3.39h2.055v-13.098h-2.034l-1.484 4.571c-0.817 2.512-1.5 4.551-1.52 4.53s-0.524-1.572-1.125-3.452c-0.596-1.88-1.248-3.919-1.443-4.535l-0.36-1.115h-2.049v6.549z"></path>
<path d="M48.745 21.342v6.549h2.209v-4.957l0.252-0.401c0.221-0.354 0.262-0.395 0.308-0.308 0.026 0.051 0.729 1.341 1.561 2.866l1.51 2.774 1.3 0.015c1.104 0.010 1.289 0 1.269-0.062-0.015-0.041-1.017-1.752-2.219-3.806-1.335-2.27-2.178-3.76-2.162-3.811 0.015-0.041 0.837-1.248 1.818-2.676 0.981-1.433 1.803-2.635 1.829-2.671 0.031-0.046-0.226-0.062-1.212-0.062l-1.248 0.005-1.464 2.234c-0.806 1.233-1.479 2.25-1.5 2.265-0.026 0.010-0.041-0.996-0.041-2.239v-2.265h-2.209v6.549z"></path>
<path d="M36.607 15.168c-0.478 0.149-0.755 0.55-0.755 1.079 0 0.288 0.021 0.365 0.169 0.58 0.442 0.668 1.397 0.683 1.854 0.036 0.308-0.447 0.226-1.125-0.18-1.474-0.308-0.262-0.699-0.339-1.089-0.221z"></path>
<path d="M39.581 15.163c-0.313 0.087-0.673 0.473-0.745 0.801-0.159 0.745 0.344 1.361 1.109 1.366 0.437 0 0.75-0.19 0.955-0.586 0.467-0.889-0.344-1.854-1.32-1.582z"></path>
<path d="M22.123 18.373c-0.010 0.026-0.051 0.123-0.082 0.226l-0.062 0.19-0.318-0.098c-0.909-0.277-2.198-0.36-2.856-0.185-0.668 0.18-1.135 0.539-1.428 1.094-0.308 0.58-0.324 0.714-0.324 3.385 0 2.245 0.010 2.445 0.103 2.846 0.262 1.089 0.894 1.746 1.952 2.039 0.277 0.077 0.519 0.092 1.387 0.087 1.032-0.010 3.051-0.098 3.272-0.144l0.113-0.026 0.026-4.304c0.015-2.363 0.031-4.392 0.041-4.5l0.015-0.205-0.873-0.221c-0.971-0.241-0.935-0.236-0.966-0.185zM21.034 20.417c0.169 0.041 0.406 0.113 0.529 0.159l0.216 0.082v5.522l-0.313 0.036c-0.175 0.015-0.555 0.031-0.842 0.031-0.842 0-1.176-0.154-1.397-0.642-0.082-0.185-0.092-0.416-0.108-2.363-0.015-2.337-0.005-2.435 0.267-2.692 0.288-0.272 0.919-0.324 1.649-0.134z"></path>
<path d="M81.531 18.543c-0.046 0.113-0.108 0.205-0.139 0.205s-0.2-0.046-0.375-0.103c-0.175-0.051-0.555-0.134-0.853-0.175-1.572-0.236-2.666 0.082-3.215 0.935-0.416 0.652-0.488 1.279-0.452 4.006 0.021 1.813 0.036 2.024 0.134 2.419 0.262 1.022 0.791 1.623 1.736 1.967 0.247 0.087 0.452 0.113 1.187 0.134 0.832 0.021 3.2-0.062 3.616-0.128l0.19-0.026 0.026-4.299c0.010-2.363 0.036-4.387 0.056-4.5l0.036-0.205-0.894-0.221c-0.488-0.118-0.909-0.216-0.93-0.216-0.026 0-0.082 0.092-0.123 0.205zM80.318 20.366c0.19 0.041 0.478 0.118 0.632 0.169l0.282 0.098 0.015 2.758c0.010 2.589 0.005 2.758-0.077 2.794-0.051 0.015-0.462 0.036-0.914 0.036-0.776 0-0.837-0.005-1.079-0.128-0.298-0.149-0.457-0.365-0.534-0.724-0.087-0.411-0.077-4.32 0.015-4.53 0.087-0.211 0.334-0.437 0.524-0.498 0.236-0.067 0.75-0.056 1.135 0.026z"></path>
<path d="M33.746 23.217v4.674h2.055v-9.348h-2.055v4.674z"></path>
<path d="M37.393 23.217v4.674h2.106v-9.348h-2.106v4.674z"></path>
<path d="M57.138 18.584c0.010 0.021 0.729 2.121 1.597 4.669l1.577 4.633-1.377 3.883 0.971 0.015c0.539 0.005 0.986 0 1.002-0.010 0.021-0.021 4.731-13.17 4.736-13.221 0-0.005-0.452-0.005-1.007 0l-1.012 0.015-1.135 3.169c-0.621 1.741-1.151 3.143-1.166 3.108-0.021-0.036-0.478-1.464-1.022-3.185l-0.991-3.118h-1.099c-0.606 0-1.089 0.015-1.074 0.041z"></path>
<path d="M66.568 23.217v4.674h3.441c1.895 0 3.441 0.005 3.447 0.010 0 0.010 0.087 0.524 0.19 1.145l0.195 1.13 0.858 0.015 0.858 0.010v-4.366h-2.055v-7.294h-2.106v7.294l-1.371-0.010-1.377-0.015-0.015-3.637-0.010-3.631h-2.055v4.674z"></path>
</symbol>
<symbol id="icon-menu1" viewBox="0 0 24 24">
<path d="M19 18c.55 0 1 .45 1 1s-.45 1-1 1H5c-.55 0-1-.45-1-1s.45-1 1-1h14zm0-2H5c-1.654 0-3 1.346-3 3s1.346 3 3 3h14c1.654 0 3-1.346 3-3s-1.346-3-3-3zM19 11c.55 0 1 .45 1 1s-.45 1-1 1H5c-.55 0-1-.45-1-1s.45-1 1-1h14zm0-2H5c-1.654 0-3 1.346-3 3s1.346 3 3 3h14c1.654 0 3-1.346 3-3s-1.346-3-3-3zM19 4c.55 0 1 .45 1 1s-.45 1-1 1H5c-.55 0-1-.45-1-1s.45-1 1-1h14zm0-2H5C3.346 2 2 3.346 2 5s1.346 3 3 3h14c1.654 0 3-1.346 3-3s-1.346-3-3-3z"/></symbol><symbol id="icon-menu2" viewBox="0 0 24 24"><path d="M3 13h18a1 1 0 0 0 0-2H3a1 1 0 0 0 0 2zm0-6h18a1 1 0 0 0 0-2H3a1 1 0 0 0 0 2zm0 12h18a1 1 0 0 0 0-2H3a1 1 0 0 0 0 2z"/></symbol>
<symbol id="icon-cross" viewBox="0 0 32 32"><path d="M16 0C7.163 0 0 7.163 0 16s7.163 16 16 16 16-7.163 16-16S24.837 0 16 0zm0 29C8.82 29 3 23.18 3 16S8.82 3 16 3s13 5.82 13 13-5.82 13-13 13z"/><path d="m21 8-5 5-5-5-3 3 5 5-5 5 3 3 5-5 5 5 3-3-5-5 5-5z"/></symbol></defs></svg>