<svg aria-hidden="true" style="position:absolute;width:0;height:0;overflow:hidden" xmlns="http://www.w3.org/2000/svg"><defs>
<symbol id="icon-cross-ch" viewBox="0 -6 45 45">
<path d="M13.803 31.611l3.487-3.487c-0.009-0.102-0.014-0.206-0.014-0.31 0-1.738 1.253-3.147 2.798-3.147 0.206 0 0.407 0.025 0.601 0.073l3.156-3.156 10.028 10.028 4.418-4.418c-0.157-0.347-0.245-0.735-0.245-1.145 0-0.489 0.125-0.948 0.344-1.341l-2.978-2.978c-0.267 0.135-0.566 0.21-0.881 0.21-1.14 0-2.063-0.986-2.063-2.203 0-0.285 0.051-0.558 0.143-0.808l-3.055-3.055 3.531-3.531c-0.084-0.283-0.129-0.583-0.129-0.894 0-1.719 1.378-3.112 3.078-3.112 0.32 0 0.628 0.049 0.918 0.141l2.631-2.631-4.918-4.918c-0.262 0.546-0.811 0.922-1.446 0.922-0.302 0-0.585-0.085-0.827-0.234l-4.881 4.881c0.223 0.349 0.354 0.768 0.354 1.218 0 1.217-0.951 2.204-2.123 2.204-0.462 0-0.89-0.153-1.238-0.414l-0.658 0.658-10.028-10.028-2.090 2.090c0.284 0.266 0.458 0.619 0.458 1.006 0 0.83-0.799 1.504-1.784 1.504-0.35 0-0.676-0.085-0.952-0.232l-1.343 1.343 3.488 3.488c0.22-0.325 0.621-0.543 1.080-0.543 0.695 0 1.259 0.501 1.259 1.119 0 0.454-0.304 0.845-0.742 1.021l3.241 3.241c0.191-0.076 0.397-0.118 0.613-0.118 0.956 0 1.731 0.814 1.731 1.819s-0.775 1.818-1.731 1.818c-0.215 0-0.421-0.041-0.612-0.117l-8.328 8.328 5.711 5.711zM33.468 26.94c0.522 0 0.944 0.454 0.944 1.014s-0.423 1.014-0.944 1.014c-0.522 0-0.944-0.454-0.944-1.014s0.423-1.014 0.944-1.014zM11.995 24.876c0.792 0 1.434 0.673 1.434 1.504s-0.642 1.504-1.434 1.504c-0.792 0-1.434-0.673-1.434-1.504s0.642-1.504 1.434-1.504zM19.418 7.74c0.295 0 0.533 0.235 0.533 0.525s-0.239 0.525-0.533 0.525c-0.295 0-0.533-0.235-0.533-0.525s0.239-0.525 0.533-0.525zM35.356 4.453c-0.483 0-0.874 0.376-0.874 0.839s0.391 0.839 0.874 0.839c0.483 0 0.874-0.376 0.874-0.839s-0.391-0.839-0.874-0.839zM27.173 14.735c0.637 0 1.154 0.532 1.154 1.189s-0.517 1.189-1.154 1.189c-0.637 0-1.154-0.532-1.154-1.189s0.517-1.189 1.154-1.189zM20.598 11.797c0.29 0 0.525 0.219 0.525 0.49s-0.235 0.49-0.525 0.49c-0.29 0-0.525-0.219-0.525-0.49s0.235-0.49 0.525-0.49zM19.060 20.89c0.29 0 0.525 0.235 0.525 0.525s-0.235 0.525-0.525 0.525c-0.29 0-0.525-0.235-0.525-0.525s0.235-0.525 0.525-0.525z"></path>
</symbol>
<symbol id="icon-logo-main" viewBox="0 0 97 32">
<path fill="#ff0" style="fill: var(--color1, #ff0)" d="M59.030 0.801c-0.521 0.147-0.954 0.531-1.111 0.988-0.133 0.383-0.113 0.963 0.044 1.312 0.246 0.536 0.673 0.87 1.239 0.973 0.782 0.143 1.524-0.261 1.858-1.008 0.138-0.315 0.152-0.914 0.025-1.283-0.202-0.575-0.791-0.988-1.465-1.027-0.216-0.010-0.457 0.005-0.59 0.044z"></path>
<path fill="#ff0" style="fill: var(--color1, #ff0)" d="M0.393 7.054v6.267h2.163v-4.68l0.182-0.305c0.098-0.162 0.206-0.339 0.236-0.388 0.054-0.074 0.265 0.29 1.543 2.645l1.489 2.728h1.273c0.703 0 1.268-0.015 1.258-0.039-0.015-0.020-0.949-1.617-2.084-3.549s-2.089-3.564-2.123-3.623c-0.049-0.103 0.093-0.329 1.716-2.684 0.973-1.421 1.77-2.59 1.77-2.61 0-0.015-0.546-0.025-1.214-0.020l-1.214 0.015-1.406 2.133-1.401 2.133-0.015-2.143-0.010-2.148h-2.163v6.267z"></path>
<path fill="#ff0" style="fill: var(--color1, #ff0)" d="M22.267 4.311c-0.034 0.103-0.074 0.202-0.093 0.221s-0.177-0.005-0.349-0.059c-0.875-0.261-1.996-0.324-2.679-0.147-0.693 0.177-1.101 0.492-1.396 1.081s-0.31 0.752-0.29 3.416c0.015 2.32 0.020 2.364 0.133 2.704 0.162 0.487 0.305 0.752 0.565 1.042 0.423 0.467 0.924 0.708 1.706 0.806 0.408 0.054 2.089 0.015 3.692-0.088l0.477-0.030 0.020-4.159c0.015-2.286 0.039-4.237 0.059-4.331l0.029-0.172-0.85-0.216c-0.467-0.118-0.875-0.226-0.904-0.236-0.034-0.015-0.084 0.064-0.118 0.167zM21.343 6.194c0.211 0.054 0.437 0.128 0.506 0.157l0.123 0.054v5.24l-0.182 0.034c-0.103 0.020-0.472 0.039-0.826 0.039-0.959 0.005-1.258-0.147-1.425-0.728-0.064-0.221-0.074-0.585-0.064-2.33 0.015-2.001 0.020-2.069 0.118-2.202 0.138-0.187 0.32-0.315 0.516-0.369 0.231-0.059 0.777-0.010 1.234 0.103z"></path>
<path fill="#ff0" style="fill: var(--color1, #ff0)" d="M45.174 4.178c-1.401 0.197-2.281 0.963-2.615 2.291-0.108 0.418-0.113 0.526-0.113 2.33 0.005 1.799 0.010 1.912 0.113 2.286 0.344 1.244 1.086 2.015 2.222 2.32 0.452 0.123 1.666 0.118 2.114-0.005 1.229-0.339 1.981-1.298 2.158-2.758 0.069-0.555 0.069-3.062 0.005-3.613-0.177-1.475-0.944-2.433-2.187-2.753-0.442-0.113-1.249-0.157-1.696-0.098zM46.402 6.312c0.27 0.133 0.511 0.467 0.585 0.816 0.034 0.147 0.054 0.855 0.054 1.735 0 1.18-0.015 1.548-0.074 1.779-0.152 0.58-0.551 0.875-1.175 0.875-0.433 0-0.723-0.118-0.973-0.398-0.31-0.344-0.334-0.506-0.334-2.291 0-1.676 0.020-1.843 0.236-2.158 0.319-0.477 1.106-0.644 1.681-0.359z"></path>
<path fill="#ff0" style="fill: var(--color1, #ff0)" d="M52.227 4.183c-0.457 0.025-1.077 0.074-1.376 0.103l-0.541 0.064-0.015 4.483-0.010 4.483 0.157 0.025c0.369 0.059 2.674 0.177 3.382 0.177 1.273 0 1.873-0.206 2.532-0.855 0.565-0.555 0.831-1.214 0.826-2.045-0.005-0.806-0.246-1.416-0.762-1.937l-0.334-0.334 0.202-0.221c0.433-0.472 0.644-1.214 0.541-1.917-0.143-0.978-0.806-1.637-1.947-1.937-0.477-0.123-1.425-0.157-2.654-0.088zM54.321 6.080c0.428 0.241 0.6 0.58 0.492 0.988-0.162 0.595-0.806 0.865-1.971 0.836l-0.516-0.015-0.015-0.968-0.010-0.968 0.403-0.020c0.226-0.010 0.619-0.015 0.88-0.010 0.428 0.010 0.501 0.025 0.737 0.157zM54.189 9.684c0.374 0.059 0.669 0.206 0.821 0.403 0.098 0.133 0.118 0.221 0.118 0.492 0 0.295-0.015 0.344-0.147 0.487-0.305 0.319-0.472 0.359-1.632 0.379l-1.047 0.020v-0.88c0-0.487 0.015-0.9 0.034-0.914 0.049-0.054 1.524-0.039 1.853 0.015z"></path>
<path fill="#ff0" style="fill: var(--color1, #ff0)" d="M69.653 4.163c-1.352 0.177-2.281 0.983-2.664 2.3-0.108 0.383-0.113 0.447-0.113 2.482l0.005 2.089 0.123 0.403c0.315 0.998 0.988 1.632 2.055 1.927 0.61 0.167 1.342 0.226 2.020 0.162 0.732-0.074 1.573-0.246 1.573-0.329s-0.334-1.553-0.359-1.578c-0.010-0.010-0.192 0.020-0.408 0.064-0.265 0.059-0.61 0.084-1.076 0.084-0.86 0.005-1.135-0.084-1.534-0.487-0.398-0.408-0.408-0.467-0.408-2.482 0-2.001 0.015-2.084 0.393-2.463 0.192-0.192 0.305-0.256 0.59-0.344 0.506-0.152 1.14-0.118 1.75 0.103 0.241 0.084 0.472 0.167 0.516 0.177 0.059 0.020 0.103-0.074 0.206-0.433 0.069-0.251 0.172-0.605 0.226-0.786l0.093-0.324-0.447-0.172c-0.251-0.093-0.654-0.216-0.9-0.275-0.442-0.103-1.303-0.167-1.642-0.118z"></path>
<path fill="#ff0" style="fill: var(--color1, #ff0)" d="M11.994 4.306c-1.214 0.261-1.976 0.983-2.32 2.217-0.108 0.383-0.113 0.398-0.128 5.324l-0.015 4.94 0.973 0.211c0.536 0.113 0.988 0.206 1.013 0.206 0.020 0 0.034-0.89 0.034-1.971 0-1.858 0.005-1.971 0.088-1.947 0.044 0.020 0.241 0.084 0.428 0.152 0.914 0.319 2.065 0.236 2.822-0.206 0.31-0.182 0.698-0.595 0.88-0.929 0.349-0.659 0.452-1.411 0.452-3.308-0.005-1.327-0.054-2.040-0.172-2.517-0.29-1.135-1.126-1.947-2.246-2.173-0.467-0.098-1.371-0.098-1.809 0zM13.498 6.38c0.251 0.128 0.531 0.433 0.614 0.678 0.054 0.147 0.069 0.6 0.069 2.035v1.843l-0.147 0.295c-0.3 0.6-0.86 0.747-1.74 0.462-0.369-0.123-0.673-0.393-0.718-0.644-0.020-0.088-0.025-0.993-0.015-2.006 0.015-1.809 0.015-1.848 0.128-2.094 0.143-0.315 0.319-0.487 0.629-0.614 0.319-0.128 0.89-0.108 1.18 0.044z"></path>
<path fill="#ff0" style="fill: var(--color1, #ff0)" d="M30.82 4.306c-0.683 0.182-1.17 0.565-1.44 1.14l-0.157 0.329-0.049 5.702-0.197 0.015c-0.29 0.025-0.782-0.123-1.027-0.315-0.123-0.093-0.261-0.261-0.324-0.383-0.103-0.216-0.103-0.256-0.088-2.128 0.015-1.824 0.020-1.917 0.118-2.128 0.143-0.305 0.403-0.536 0.718-0.644 0.143-0.049 0.261-0.108 0.261-0.138 0-0.025-0.226-0.369-0.506-0.762l-0.501-0.718-0.246 0.093c-0.649 0.246-1.19 0.732-1.485 1.332-0.349 0.713-0.433 1.303-0.433 3.087 0 0.683 0.025 1.455 0.054 1.716 0.202 1.833 1.278 2.846 3.126 2.949l0.555 0.030 0.010 1.652 0.015 1.647 0.909 0.211c0.501 0.113 0.939 0.206 0.973 0.211 0.044 0 0.059-0.403 0.059-1.858v-1.863l0.629-0.030c0.723-0.034 1.072-0.113 1.583-0.364 0.762-0.369 1.273-1.101 1.48-2.104 0.093-0.447 0.098-0.634 0.084-2.261l-0.020-1.77-0.152-0.467c-0.192-0.565-0.546-1.126-0.939-1.475-0.344-0.31-0.954-0.619-1.411-0.713-0.437-0.093-1.244-0.088-1.598 0.005zM32.113 5.854c0.261 0.069 0.541 0.339 0.678 0.649 0.118 0.251 0.118 0.28 0.133 2.099 0.015 2.030 0.005 2.133-0.265 2.448-0.241 0.28-0.59 0.418-1.076 0.423l-0.393 0.005v-2.605c0-2.9-0.015-2.763 0.334-2.974 0.177-0.108 0.32-0.123 0.59-0.044z"></path>
<path fill="#ff0" style="fill: var(--color1, #ff0)" d="M84.473 4.262c-1.293 0.177-2.197 0.993-2.541 2.291l-0.113 0.403-0.010 10.259-0.015 10.264h2.015v-3.47l0.162-0.147c0.334-0.31 0.236-0.388 1.165 0.909 1.135 1.588 1.43 1.942 1.863 2.251 0.492 0.354 0.841 0.457 1.558 0.457h0.56v-1.77h-0.113c-0.064 0-0.221-0.034-0.349-0.079-0.423-0.147-0.806-0.57-1.858-2.069-0.526-0.752-0.968-1.391-0.988-1.421-0.029-0.049 0.782-0.963 2.777-3.131l0.442-0.477h-2.507l-1.312 1.411c-0.718 0.782-1.332 1.421-1.357 1.43s-0.044-1.553-0.044-4.045c0-3.849 0.005-4.065 0.088-4.041 0.044 0.020 0.241 0.084 0.428 0.152 1.239 0.437 2.763 0.113 3.426-0.727 0.595-0.752 0.728-1.43 0.728-3.711 0-1.411-0.044-2.035-0.172-2.536-0.285-1.121-1.131-1.932-2.246-2.158-0.349-0.074-1.209-0.093-1.588-0.044zM85.751 6.375c0.265 0.138 0.462 0.339 0.585 0.605 0.098 0.211 0.103 0.315 0.118 1.966 0.015 1.534 0.005 1.784-0.069 2.060-0.157 0.59-0.634 0.9-1.263 0.821-0.708-0.088-1.229-0.423-1.288-0.826-0.020-0.118-0.025-1.018-0.015-2.006l0.015-1.794 0.128-0.275c0.226-0.477 0.634-0.693 1.249-0.668 0.221 0.015 0.413 0.054 0.541 0.118z"></path>
<path fill="#ff0" style="fill: var(--color1, #ff0)" d="M35.982 5.284v0.959h1.671v2.492c0 2.738 0.015 2.895 0.295 3.49 0.285 0.619 0.993 1.185 1.75 1.406l0.251 0.074 0.428-0.693 0.423-0.698-0.241-0.103c-0.339-0.152-0.669-0.467-0.777-0.747-0.079-0.211-0.088-0.462-0.103-2.728l-0.015-2.492h1.775v-1.917h-5.456v0.959z"></path>
<path fill="#ff0" style="fill: var(--color1, #ff0)" d="M58.495 8.823v4.498h2.015v-8.995h-2.015v4.498z"></path>
<path fill="#ff0" style="fill: var(--color1, #ff0)" d="M73.88 8.873v4.498h1.991l1.303-2.595 1.303-2.59 0.015 2.59 0.010 2.595h2.015v-8.995h-2.050l-1.283 2.59-1.283 2.595v-2.595l-0.005-2.59h-2.015v4.498z"></path>
<path fill="#ff0" style="fill: var(--color1, #ff0)" d="M89.806 8.873v4.498h1.991l2.556-5.112 0.025 2.541 0.025 2.546 1.022 0.015 1.017 0.010v-8.995h-2.045l-1.288 2.586-1.288 2.59v-5.176h-2.015v4.498z"></path>
<path fill="#ff0" style="fill: var(--color1, #ff0)" d="M5.761 21.22l0.015 6.282 0.998 0.015 0.993 0.010v-3.229c0-1.814 0.020-3.2 0.044-3.161s0.423 1.288 0.89 2.777c0.467 1.485 0.909 2.91 0.988 3.156l0.147 0.457h1.499l1.032-3.23 1.027-3.234 0.015 3.23 0.010 3.234h2.015v-12.584h-2.010l-0.614 1.878c-0.334 1.037-0.973 2.994-1.416 4.35-0.437 1.357-0.816 2.453-0.831 2.433-0.020-0.020-0.649-1.976-1.401-4.345l-1.371-4.316h-2.040l0.010 6.277z"></path>
<path fill="#ff0" style="fill: var(--color1, #ff0)" d="M46.009 21.21v6.267h2.163v-4.689l0.236-0.383c0.197-0.329 0.241-0.374 0.29-0.305 0.029 0.044 0.708 1.273 1.499 2.728l1.435 2.649h1.273c0.698 0 1.258-0.015 1.249-0.039-0.010-0.020-0.914-1.563-2.010-3.426-1.096-1.868-2.050-3.495-2.123-3.623l-0.133-0.231 1.77-2.581c0.978-1.416 1.775-2.59 1.775-2.605s-0.541-0.030-1.199-0.030h-1.199l-1.362 2.074c-0.752 1.145-1.396 2.114-1.43 2.153-0.059 0.059-0.069-0.256-0.069-2.079v-2.148h-2.163v6.267z"></path>
<path fill="#ff0" style="fill: var(--color1, #ff0)" d="M35.662 15.297c-0.256 0.088-0.457 0.275-0.595 0.555-0.113 0.231-0.128 0.315-0.103 0.546 0.093 0.904 1.145 1.322 1.809 0.723 0.236-0.216 0.28-0.29 0.339-0.595 0.093-0.492-0.128-0.949-0.555-1.165-0.27-0.133-0.624-0.157-0.895-0.064z"></path>
<path fill="#ff0" style="fill: var(--color1, #ff0)" d="M38.498 15.292c-0.226 0.069-0.58 0.433-0.644 0.664-0.079 0.285-0.064 0.56 0.049 0.806 0.133 0.295 0.221 0.388 0.511 0.521 0.408 0.192 0.836 0.143 1.175-0.138 0.246-0.202 0.374-0.482 0.374-0.841 0-0.757-0.688-1.234-1.465-1.013z"></path>
<path fill="#ff0" style="fill: var(--color1, #ff0)" d="M21.55 18.512c-0.044 0.118-0.093 0.216-0.108 0.216s-0.172-0.044-0.349-0.098c-0.806-0.236-1.878-0.31-2.536-0.172-0.713 0.152-1.253 0.555-1.534 1.155-0.275 0.58-0.285 0.698-0.285 3.22 0.005 2.232 0.005 2.325 0.113 2.704 0.324 1.175 0.968 1.774 2.123 1.981 0.408 0.069 0.614 0.074 2.104 0.015 0.914-0.034 1.789-0.079 1.951-0.098l0.295-0.029 0.029-4.203c0.020-2.31 0.039-4.257 0.049-4.321 0.020-0.113-0.010-0.128-0.875-0.354l-0.895-0.231-0.084 0.216zM20.522 20.331c0.162 0.039 0.398 0.108 0.531 0.152l0.231 0.084v5.24l-0.133 0.034c-0.246 0.064-1.548 0.044-1.745-0.025-0.226-0.079-0.506-0.383-0.585-0.634-0.064-0.216-0.123-3.564-0.069-4.075 0.084-0.791 0.659-1.042 1.77-0.777z"></path>
<path fill="#ff0" style="fill: var(--color1, #ff0)" d="M78.422 18.463c-0.039 0.088-0.069 0.187-0.069 0.216s-0.039 0.044-0.088 0.025c-0.629-0.197-1.121-0.28-1.784-0.305-1.101-0.039-1.661 0.118-2.173 0.614-0.295 0.29-0.437 0.526-0.58 0.993-0.118 0.364-0.118 0.388-0.118 2.728 0 2.649 0.015 2.792 0.354 3.47 0.408 0.821 1.135 1.253 2.276 1.347 0.334 0.029 2.045-0.025 3.406-0.108l0.526-0.029v-3.495c0-2.881 0.039-4.753 0.113-5.107 0.005-0.034-0.315-0.138-0.89-0.285l-0.904-0.231-0.069 0.167zM77.065 20.252c0.167 0.029 0.487 0.108 0.698 0.177l0.393 0.123v5.25l-0.231 0.034c-0.403 0.059-1.401 0.044-1.612-0.025-0.261-0.088-0.496-0.315-0.6-0.59-0.079-0.202-0.088-0.437-0.088-2.315 0-2.084 0-2.089 0.113-2.266 0.241-0.388 0.624-0.501 1.327-0.388z"></path>
<path fill="#ff0" style="fill: var(--color1, #ff0)" d="M27.404 18.458c-1.249 0.236-2.084 1.008-2.418 2.237-0.079 0.295-0.084 0.737-0.098 5.294l-0.020 4.97 0.285 0.059c0.157 0.034 0.61 0.133 1.013 0.216l0.723 0.162v-1.991c0-1.873 0.005-1.986 0.088-1.951 0.669 0.28 1.244 0.388 1.824 0.344 1.278-0.103 2.069-0.664 2.463-1.74 0.231-0.624 0.256-0.968 0.236-3.126-0.020-1.927-0.020-1.976-0.143-2.359-0.442-1.44-1.534-2.197-3.126-2.183-0.265 0-0.634 0.034-0.826 0.069zM28.638 20.473c0.3 0.088 0.58 0.315 0.723 0.58 0.103 0.202 0.108 0.251 0.123 2.084 0.010 1.194-0.005 1.951-0.039 2.069-0.069 0.27-0.3 0.565-0.521 0.678-0.275 0.133-0.924 0.123-1.312-0.029-0.329-0.123-0.585-0.329-0.669-0.531-0.044-0.103-0.054-0.673-0.044-2.079 0.015-1.892 0.020-1.942 0.123-2.163 0.152-0.305 0.354-0.482 0.664-0.59 0.32-0.108 0.629-0.118 0.954-0.020z"></path>
<path fill="#ff0" style="fill: var(--color1, #ff0)" d="M32.944 23.029l0.015 4.473h2.015l0.015-4.473 0.010-4.473h-2.065l0.010 4.473z"></path>
<path fill="#ff0" style="fill: var(--color1, #ff0)" d="M36.473 23.029v4.498h2.015v-8.995h-2.015v4.498z"></path>
<path fill="#ff0" style="fill: var(--color1, #ff0)" d="M54.906 18.576c0 0.025 0.678 2.040 1.504 4.473l1.504 4.424-0.664 1.873-0.659 1.868h1.942l0.074-0.211c0.039-0.113 1.017-2.851 2.173-6.081s2.143-5.992 2.192-6.135l0.088-0.256-0.983 0.010-0.988 0.015-1.057 2.949c-0.58 1.622-1.072 2.969-1.091 2.989s-0.467-1.312-0.993-2.964l-0.954-2.998h-1.042c-0.614 0-1.047 0.020-1.047 0.044z"></path>
<path fill="#ff0" style="fill: var(--color1, #ff0)" d="M64.098 23.005v4.473h3.264c2.074 0 3.279 0.020 3.298 0.049 0.015 0.025 0.113 0.536 0.211 1.131l0.182 1.081h1.696v-4.227h-2.015v-6.98h-2.065v6.98h-2.556v-6.98h-2.015v4.473z"></path>
</symbol>

<symbol id="icon-menu1" viewBox="0 0 24 24">
<path d="M19 18c.55 0 1 .45 1 1s-.45 1-1 1H5c-.55 0-1-.45-1-1s.45-1 1-1h14zm0-2H5c-1.654 0-3 1.346-3 3s1.346 3 3 3h14c1.654 0 3-1.346 3-3s-1.346-3-3-3zM19 11c.55 0 1 .45 1 1s-.45 1-1 1H5c-.55 0-1-.45-1-1s.45-1 1-1h14zm0-2H5c-1.654 0-3 1.346-3 3s1.346 3 3 3h14c1.654 0 3-1.346 3-3s-1.346-3-3-3zM19 4c.55 0 1 .45 1 1s-.45 1-1 1H5c-.55 0-1-.45-1-1s.45-1 1-1h14zm0-2H5C3.346 2 2 3.346 2 5s1.346 3 3 3h14c1.654 0 3-1.346 3-3s-1.346-3-3-3z"/></symbol><symbol id="icon-menu2" viewBox="0 0 24 24"><path d="M3 13h18a1 1 0 0 0 0-2H3a1 1 0 0 0 0 2zm0-6h18a1 1 0 0 0 0-2H3a1 1 0 0 0 0 2zm0 12h18a1 1 0 0 0 0-2H3a1 1 0 0 0 0 2z"/></symbol>
<symbol id="icon-cross" viewBox="0 0 32 32"><path d="M16 0C7.163 0 0 7.163 0 16s7.163 16 16 16 16-7.163 16-16S24.837 0 16 0zm0 29C8.82 29 3 23.18 3 16S8.82 3 16 3s13 5.82 13 13-5.82 13-13 13z"/><path d="m21 8-5 5-5-5-3 3 5 5-5 5 3 3 5-5 5 5 3-3-5-5 5-5z"/></symbol></defs></svg>