<svg version="1.0" xmlns="http://www.w3.org/2000/svg"
 width="1983.000000pt" height="651.000000pt" viewBox="0 0 1983.000000 651.000000"
 preserveAspectRatio="xMidYMid meet">

<g transform="translate(0.000000,651.000000) scale(0.100000,-0.100000)" fill="yellow" 
stroke="black">
<path d="M12009 6347 c-106 -30 -194 -108 -226 -201 -27 -78 -23 -196 9 -267
50 -109 137 -177 252 -198 159 -29 310 53 378 205 28 64 31 186 5 261 -41 117
-161 201 -298 209 -44 2 -93 -1 -120 -9z"/>
<path d="M80 5075 l0 -1275 220 0 220 0 0 476 0 476 37 62 c20 33 42 69 48 79
11 15 54 -59 314 -538 l303 -555 259 0 c143 0 258 3 256 8 -3 4 -193 329 -424
722 -231 393 -425 725 -432 737 -10 21 19 67 349 546 198 289 360 527 360 531
0 3 -111 5 -247 4 l-247 -3 -286 -434 -285 -434 -3 436 -2 437 -220 0 -220 0
0 -1275z"/>
<path d="M4530 5633 c-7 -21 -15 -41 -19 -45 -4 -4 -36 1 -71 12 -178 53 -406
66 -545 30 -141 -36 -224 -100 -284 -220 -60 -120 -63 -153 -59 -695 3 -472 4
-481 27 -550 33 -99 62 -153 115 -212 86 -95 188 -144 347 -164 83 -11 425 -3
751 18 l97 6 4 846 c3 465 8 862 12 881 l6 35 -173 44 c-95 24 -178 46 -184
48 -7 3 -17 -13 -24 -34z m-188 -383 c43 -11 89 -26 103 -32 l25 -11 0 -533 0
-533 -37 -7 c-21 -4 -96 -8 -168 -8 -195 -1 -256 30 -290 148 -13 45 -15 119
-13 474 3 407 4 421 24 448 28 38 65 64 105 75 47 12 158 2 251 -21z"/>
<path d="M9190 5660 c-285 -40 -464 -196 -532 -466 -22 -85 -23 -107 -23 -474
1 -366 2 -389 23 -465 70 -253 221 -410 452 -472 92 -25 339 -24 430 1 250 69
403 264 439 561 14 113 14 623 1 735 -36 300 -192 495 -445 560 -90 23 -254
32 -345 20z m250 -434 c55 -27 104 -95 119 -166 7 -30 11 -174 11 -353 0 -240
-3 -315 -15 -362 -31 -118 -112 -178 -239 -178 -88 0 -147 24 -198 81 -63 70
-68 103 -68 466 0 341 4 375 48 439 65 97 225 131 342 73z"/>
<path d="M10625 5659 c-93 -5 -219 -15 -280 -21 l-110 -13 -3 -912 -2 -912 32
-5 c75 -12 544 -36 688 -36 259 0 381 42 515 174 115 113 169 247 168 416 -1
164 -50 288 -155 394 l-68 68 41 45 c88 96 131 247 110 390 -29 199 -164 333
-396 394 -97 25 -290 32 -540 18z m426 -386 c87 -49 122 -118 100 -201 -33
-121 -164 -176 -401 -170 l-105 3 -3 197 -2 197 82 4 c46 2 126 3 179 2 87 -2
102 -5 150 -32z m-27 -733 c76 -12 136 -42 167 -82 20 -27 24 -45 24 -100 0
-60 -3 -70 -30 -99 -62 -65 -96 -73 -332 -77 l-213 -4 0 179 c0 99 3 183 7
186 10 11 310 8 377 -3z"/>
<path d="M14170 5663 c-275 -36 -464 -200 -542 -468 -22 -78 -23 -91 -23 -505
l1 -425 25 -82 c64 -203 201 -332 418 -392 124 -34 273 -46 411 -33 149 15
320 50 320 67 0 17 -68 316 -73 321 -2 2 -39 -4 -83 -13 -54 -12 -124 -17
-219 -17 -175 -1 -231 17 -312 99 -81 83 -83 95 -83 505 0 407 3 424 80 501
39 39 62 52 120 70 103 31 232 24 356 -21 49 -17 96 -34 105 -36 12 -4 21 15
42 88 14 51 35 123 46 160 l19 66 -91 35 c-51 19 -133 44 -183 56 -90 21 -265
34 -334 24z"/>
<path d="M2440 5634 c-247 -53 -402 -200 -472 -451 -22 -78 -23 -81 -26 -1083
l-3 -1005 198 -43 c109 -23 201 -42 206 -42 4 0 7 181 7 401 0 378 1 401 18
396 9 -4 49 -17 87 -31 186 -65 420 -48 574 42 63 37 142 121 179 189 71 134
92 287 92 673 -1 270 -11 415 -35 512 -59 231 -229 396 -457 442 -95 20 -279
20 -368 0z m306 -422 c51 -26 108 -88 125 -138 11 -30 14 -122 14 -414 l0
-375 -30 -60 c-61 -122 -175 -152 -354 -94 -75 25 -137 80 -146 131 -4 18 -5
202 -3 408 3 368 3 376 26 426 29 64 65 99 128 125 65 26 181 22 240 -9z"/>
<path d="M6270 5634 c-139 -37 -238 -115 -293 -232 l-32 -67 -5 -580 -5 -580
-40 -3 c-59 -5 -159 25 -209 64 -25 19 -53 53 -66 78 -21 44 -21 52 -18 433 3
371 4 390 24 433 29 62 82 109 146 131 29 10 53 22 53 28 0 5 -46 75 -103 155
l-102 146 -50 -19 c-132 -50 -242 -149 -302 -271 -71 -145 -88 -265 -88 -628
0 -139 5 -296 11 -349 41 -373 260 -579 636 -600 l113 -6 2 -336 3 -335 185
-43 c102 -23 191 -42 198 -43 9 0 12 82 12 378 l0 379 128 6 c147 7 218 23
322 74 155 75 259 224 301 428 19 91 20 129 17 460 l-4 360 -31 95 c-39 115
-111 229 -191 300 -70 63 -194 126 -287 145 -89 19 -253 18 -325 -1z m263
-315 c53 -14 110 -69 138 -132 24 -51 24 -57 27 -427 3 -413 1 -434 -54 -498
-49 -57 -120 -85 -219 -86 l-80 -1 0 530 c0 590 -3 562 68 605 36 22 65 25
120 9z"/>
<path d="M17185 5643 c-263 -36 -447 -202 -517 -466 l-23 -82 -2 -2087 -3
-2088 205 0 205 0 0 353 0 353 33 30 c68 63 48 79 237 -185 231 -323 291 -395
379 -458 100 -72 171 -93 317 -93 l114 0 0 180 0 180 -23 0 c-13 0 -45 7 -71
16 -86 30 -164 116 -378 421 -107 153 -197 283 -201 289 -6 10 159 196 565
637 l90 97 -255 0 -255 0 -267 -287 c-146 -159 -271 -289 -276 -291 -5 -2 -9
316 -9 823 0 783 1 827 18 822 9 -4 49 -17 87 -31 252 -89 562 -23 697 148
121 153 148 291 148 755 0 287 -9 414 -35 516 -58 228 -230 393 -457 439 -71
15 -246 19 -323 9z m260 -430 c54 -28 94 -69 119 -123 20 -43 21 -64 24 -400
3 -312 1 -363 -14 -419 -32 -120 -129 -183 -257 -167 -144 18 -250 86 -262
168 -4 24 -5 207 -3 408 l3 365 26 56 c46 97 129 141 254 136 45 -3 84 -11
110 -24z"/>
<path d="M7320 5435 l0 -195 170 0 170 0 0 -507 c0 -557 3 -589 60 -710 58
-126 202 -241 356 -286 l51 -15 87 141 86 142 -49 21 c-69 31 -136 95 -158
152 -16 43 -18 94 -21 555 l-3 507 181 0 180 0 0 195 0 195 -555 0 -555 0 0
-195z"/>
<path d="M11900 4715 l0 -915 205 0 205 0 0 915 0 915 -205 0 -205 0 0 -915z"/>
<path d="M15030 4705 l0 -915 203 0 202 0 265 528 265 527 3 -527 2 -528 205
0 205 0 0 915 0 915 -208 0 -209 0 -261 -527 -261 -528 0 528 -1 527 -205 0
-205 0 0 -915z"/>
<path d="M18270 4705 l0 -915 203 0 202 0 260 520 260 520 5 -517 5 -518 208
-3 207 -2 0 915 0 915 -208 0 -208 0 -262 -526 -262 -527 0 527 0 526 -205 0
-205 0 0 -915z"/>
<path d="M1172 2193 l3 -1278 203 -3 202 -2 0 657 c0 369 4 651 9 643 5 -8 86
-262 181 -565 95 -302 185 -592 201 -642 l30 -93 153 0 152 0 210 657 209 658
3 -657 2 -658 205 0 205 0 0 1280 0 1280 -204 0 -205 0 -125 -382 c-68 -211
-198 -609 -288 -885 -89 -276 -166 -499 -169 -495 -4 4 -132 402 -285 884
l-279 878 -208 0 -207 0 2 -1277z"/>
<path d="M9360 2195 l0 -1275 220 0 220 0 0 477 0 477 48 78 c40 67 49 76 59
62 6 -9 144 -259 305 -555 l292 -539 259 0 c142 0 256 3 254 8 -2 4 -186 318
-409 697 -223 380 -417 711 -432 737 l-27 47 360 525 c199 288 361 527 361
530 0 3 -110 6 -244 6 l-244 0 -277 -422 c-153 -233 -284 -430 -291 -438 -12
-12 -14 52 -14 423 l0 437 -220 0 -220 0 0 -1275z"/>
<path d="M7255 3398 c-52 -18 -93 -56 -121 -113 -23 -47 -26 -64 -21 -111 19
-184 233 -269 368 -147 48 44 57 59 69 121 19 100 -26 193 -113 237 -55 27
-127 32 -182 13z"/>
<path d="M7832 3399 c-46 -14 -118 -88 -131 -135 -16 -58 -13 -114 10 -164 27
-60 45 -79 104 -106 83 -39 170 -29 239 28 50 41 76 98 76 171 0 154 -140 251
-298 206z"/>
<path d="M4384 2744 c-9 -24 -19 -44 -22 -44 -3 0 -35 9 -71 20 -164 48 -382
63 -516 35 -145 -31 -255 -113 -312 -235 -56 -118 -58 -142 -58 -655 1 -454 1
-473 23 -550 66 -239 197 -361 432 -403 83 -14 125 -15 428 -3 186 7 364 16
397 20 l60 6 6 855 c4 470 8 866 10 879 4 23 -2 26 -178 72 l-182 47 -17 -44z
m-209 -370 c33 -8 81 -22 108 -31 l47 -17 0 -533 0 -533 -27 -7 c-50 -13 -315
-9 -355 5 -46 16 -103 78 -119 129 -13 44 -25 725 -14 829 17 161 134 212 360
158z"/>
<path d="M15954 2754 c-8 -18 -14 -38 -14 -44 0 -6 -8 -9 -18 -5 -128 40 -228
57 -363 62 -224 8 -338 -24 -442 -125 -60 -59 -89 -107 -118 -202 -24 -74 -24
-79 -24 -555 0 -539 3 -568 72 -706 83 -167 231 -255 463 -274 68 -6 416 5
693 22 l107 6 0 711 c0 586 8 967 23 1039 1 7 -64 28 -181 58 l-184 47 -14
-34z m-276 -364 c34 -6 99 -22 142 -36 l80 -25 0 -534 0 -534 -47 -7 c-82 -12
-285 -9 -328 5 -53 18 -101 64 -122 120 -16 41 -18 89 -18 471 0 424 0 425 23
461 49 79 127 102 270 79z"/>
<path d="M5575 2755 c-254 -48 -424 -205 -492 -455 -16 -60 -17 -150 -20
-1077 l-4 -1011 58 -12 c32 -7 124 -27 206 -44 l147 -33 0 405 c0 381 1 404
18 397 136 -57 253 -79 371 -70 260 21 421 135 501 354 47 127 52 197 48 636
-4 392 -4 402 -29 480 -90 293 -312 447 -636 444 -54 0 -129 -7 -168 -14z
m251 -410 c61 -18 118 -64 147 -118 21 -41 22 -51 25 -424 2 -243 -1 -397 -8
-421 -14 -55 -61 -115 -106 -138 -56 -27 -188 -25 -267 6 -67 25 -119 67 -136
108 -9 21 -11 137 -9 423 3 385 4 395 25 440 31 62 72 98 135 120 65 22 128
24 194 4z"/>
<path d="M6702 1825 l3 -910 205 0 205 0 3 910 2 910 -210 0 -210 0 2 -910z"/>
<path d="M7420 1825 l0 -915 205 0 205 0 0 915 0 915 -205 0 -205 0 0 -915z"/>
<path d="M11170 2731 c0 -5 138 -415 306 -910 l306 -900 -135 -381 -134 -380
197 0 198 0 15 43 c8 23 207 580 442 1237 235 657 436 1219 446 1248 l18 52
-200 -2 -201 -3 -215 -600 c-118 -330 -218 -604 -222 -608 -4 -4 -95 267 -202
603 l-194 610 -212 0 c-125 0 -213 -4 -213 -9z"/>
<path d="M13040 1830 l0 -910 664 0 c422 0 667 -4 671 -10 3 -5 23 -109 43
-230 l37 -220 172 0 173 0 0 430 0 430 -205 0 -205 0 0 710 0 710 -210 0 -210
0 0 -710 0 -710 -260 0 -260 0 0 710 0 710 -205 0 -205 0 0 -910z"/>
</g>
</svg>
